<svg xmlns="http://www.w3.org/2000/svg" width="173.3" height="24" viewBox="0 0 173.3 24">
  <g id="CreditDirect_Logo_white" data-name="CreditDirect Logo white" transform="translate(-73.07 -236.75)">
    <path id="Path_2243" data-name="Path 2243" d="M310.609,251.684a5.336,5.336,0,0,0,.749,3.084,3.351,3.351,0,0,0,2.956,1.25,9.243,9.243,0,0,0,1.959-.26,9.547,9.547,0,0,0,1.959-.637h0a.538.538,0,0,0,.224-.2.353.353,0,0,0,.012-.244l-.413-1.935v-.012a.106.106,0,0,0-.012-.04h0a.156.156,0,0,0-.072-.08.283.283,0,0,0-.168-.016.45.45,0,0,0-.092.024l-.016,0a13.481,13.481,0,0,1-1.322.356,5.266,5.266,0,0,1-.993.136,1.644,1.644,0,0,1-1.1-.316,1.516,1.516,0,0,1-.453-1.238v-6.905h3.757a.34.34,0,0,0,.228-.1h0a.349.349,0,0,0,.108-.232v-2.143a.336.336,0,0,0-.092-.24h0a.345.345,0,0,0-.244-.1h-3.757V237.1a.379.379,0,0,0-.092-.248.278.278,0,0,0-.208-.088h-2.584a.332.332,0,0,0-.232.108h0a.327.327,0,0,0-.1.228v4.746h-1.774a.289.289,0,0,0-.216.084.369.369,0,0,0-.088.252v2.143a.36.36,0,0,0,.1.244.277.277,0,0,0,.2.092H310.6v7.026Z" transform="translate(-141.147 -0.006)" fill="#fff"/>
    <path id="Path_2244" data-name="Path 2244" d="M298.4,240.231a1.73,1.73,0,0,0,1.742-1.742,1.708,1.708,0,0,0-.5-1.222,1.752,1.752,0,0,0-1.242-.5,1.69,1.69,0,0,0-1.718,1.718,1.762,1.762,0,0,0,.5,1.246,1.728,1.728,0,0,0,1.222.5" transform="translate(-134.044 -0.012)" fill="#fff"/>
    <path id="Path_2245" data-name="Path 2245" d="M297.07,262.938a.327.327,0,0,0,.1.228h0a.358.358,0,0,0,.232.108h2.551a.339.339,0,0,0,.232-.108h0a.329.329,0,0,0,.1-.228V249.776a.341.341,0,0,0-.1-.232.347.347,0,0,0-.24-.1h-2.551a.347.347,0,0,0-.24.1.326.326,0,0,0-.1.232Z" transform="translate(-134.277 -7.607)" fill="#fff"/>
    <path id="Path_2246" data-name="Path 2246" d="M260.09,253.968a6.3,6.3,0,0,0,4.718,2.055,5.878,5.878,0,0,0,4.474-2.035l.409-.521c.192.573.372,1.222.593,1.77a.883.883,0,0,0,.192.368h0a.218.218,0,0,0,.16.068H271.8a.344.344,0,0,0,.236-.1.336.336,0,0,0,.1-.236V237.1a.339.339,0,0,0-.108-.232h0a.345.345,0,0,0-.228-.1h-2.552a.336.336,0,0,0-.224.112h0a.336.336,0,0,0-.112.224v5.191l-.485-.184a9.373,9.373,0,0,0-1.634-.421,10.238,10.238,0,0,0-1.734-.152,6.606,6.606,0,0,0-4.907,2.015,8.176,8.176,0,0,0-.064,10.422m8.8-3.068a3.528,3.528,0,0,1-1.4,1.658,3.949,3.949,0,0,1-2.143.589,3.453,3.453,0,0,1-2.72-1.234,4.894,4.894,0,0,1-1.069-3.156,4.68,4.68,0,0,1,1.126-3.144,3.728,3.728,0,0,1,2.856-1.214,6.108,6.108,0,0,1,3.22.881l.16.108v5.383Z" transform="translate(-111.004 -0.006)" fill="#fff"/>
    <path id="Path_2247" data-name="Path 2247" d="M223.65,255.884a7.445,7.445,0,0,0,2.031,5.2,6.819,6.819,0,0,0,4.983,2.059,8.087,8.087,0,0,0,2.768-.477,7.935,7.935,0,0,0,2.411-1.414.367.367,0,0,0,.136-.22.328.328,0,0,0-.1-.22c-.425-.557-.833-1.138-1.266-1.686a.144.144,0,0,0-.1-.056.487.487,0,0,0-.252.1h0a.442.442,0,0,0-.056.044h0a5.086,5.086,0,0,1-1.362.793,5.408,5.408,0,0,1-1.983.36,4.013,4.013,0,0,1-2.78-1.061,3.739,3.739,0,0,1-1.2-2.664l-.008-.365h9.685a.341.341,0,0,0,.22-.1.408.408,0,0,0,.072-.092c-.048-2.291.236-3.685-1.682-5.62a6.3,6.3,0,0,0-4.53-1.814,6.785,6.785,0,0,0-4.947,2.059,7.426,7.426,0,0,0-2.035,5.175m3.445-1.871a3.158,3.158,0,0,1,1.122-2.067,3.6,3.6,0,0,1,2.315-.761,3.226,3.226,0,0,1,2.195.8,2.906,2.906,0,0,1,.961,2.063l.016.372h-6.665Z" transform="translate(-90.266 -7.133)" fill="#fff"/>
    <path id="Path_2248" data-name="Path 2248" d="M203.16,262.453a.327.327,0,0,0,.1.228h0a.358.358,0,0,0,.232.108h2.423a.67.67,0,0,0,.377-.076.312.312,0,0,0,.084-.26v-9.068l.04-.16a3.224,3.224,0,0,1,1.306-1.262,3.685,3.685,0,0,1,1.782-.449,3.8,3.8,0,0,1,.877.092,3.541,3.541,0,0,1,.625.22.292.292,0,0,0,.228.02.272.272,0,0,0,.148-.156l.945-2.143h0a.426.426,0,0,0,.04-.172.285.285,0,0,0-.088-.2,1.089,1.089,0,0,0-.372-.24,5.372,5.372,0,0,0-1.995-.308,4.387,4.387,0,0,0-2.095.525,5.045,5.045,0,0,0-1.706,1.526l-.389.557-.773-2.047a.531.531,0,0,0-.12-.2.3.3,0,0,0-.176-.04H203.5a.347.347,0,0,0-.24.1.326.326,0,0,0-.1.232v13.17Z" transform="translate(-77.983 -7.121)" fill="#fff"/>
    <path id="Path_2249" data-name="Path 2249" d="M169.08,255.89a7.171,7.171,0,0,0,2.1,5.159,7.377,7.377,0,0,0,5.223,2.1,6.644,6.644,0,0,0,3.168-.737,6.147,6.147,0,0,0,2.3-2.151l0,0a.278.278,0,0,0,.052-.244.811.811,0,0,0-.244-.328l-1.418-1.2a.239.239,0,0,0-.188-.044.328.328,0,0,0-.22.1,5.767,5.767,0,0,1-1.258,1.142,3.815,3.815,0,0,1-2.1.585,4.034,4.034,0,0,1-2.988-1.25,4.525,4.525,0,0,1-1.182-3.14,4.445,4.445,0,0,1,1.2-3.112,4.264,4.264,0,0,1,4.855-.821,5.224,5.224,0,0,1,1.29.941l.008,0,.044.044h0a.551.551,0,0,0,.236.144.157.157,0,0,0,.128-.064h0l1.338-1.466.012-.012a.711.711,0,0,0,.22-.36.2.2,0,0,0-.064-.172l-.008-.008a7.7,7.7,0,0,0-2.271-1.706,6.62,6.62,0,0,0-2.884-.637,7.416,7.416,0,0,0-5.235,2.095,7.16,7.16,0,0,0-2.115,5.135" transform="translate(-57.553 -7.14)" fill="#fff"/>
    <path id="Path_2250" data-name="Path 2250" d="M483.435,252.891c0,2.079.473,3.873,3.18,3.873a7.638,7.638,0,0,0,4.218-1.386.4.4,0,0,0,.124-.565l-.252-.441c-.1-.156-.22-.316-.565-.124a6.22,6.22,0,0,1-3.337,1.166c-1.67,0-1.983-.785-1.983-2.676V243.23h5.131a.455.455,0,0,0,.5-.473v-.409a.472.472,0,0,0-.5-.473h-5.131v-4a.463.463,0,0,0-.473-.473l-.409.032c-.284.032-.5.188-.5.473v3.969h-1.762c-.284,0-.473.1-.473.377v.5c0,.284.1.473.473.473h1.762Z" transform="translate(-244.655 -0.392)" fill="#fff"/>
    <path id="Path_2251" data-name="Path 2251" d="M447.43,255.356a7.469,7.469,0,0,0,7.526,7.622,7.281,7.281,0,0,0,5.7-2.8.408.408,0,0,0-.1-.565l-.284-.252a.413.413,0,0,0-.693.032,6.166,6.166,0,1,1-4.63-10.266,6.324,6.324,0,0,1,4.282,1.73c.252.252.5.344.785.064l.252-.252a.457.457,0,0,0,.032-.661,7.039,7.039,0,0,0-5.351-2.235,7.459,7.459,0,0,0-7.522,7.586" transform="translate(-224.411 -6.606)" fill="#fff"/>
    <path id="Path_2252" data-name="Path 2252" d="M411.38,255.318c0,4.25,2.74,7.65,7.022,7.65a9.327,9.327,0,0,0,5.291-1.7c.252-.188.284-.441.156-.565l-.344-.537c-.156-.22-.316-.188-.629,0a7.947,7.947,0,0,1-4.47,1.45,5.753,5.753,0,0,1-5.636-5.824h11.62c.537,0,.537-.849.537-1.418a6.378,6.378,0,0,0-6.517-6.613c-4.29,0-7.03,3.437-7.03,7.558m1.418-.817a5.551,5.551,0,0,1,5.608-5.383,5.055,5.055,0,0,1,5.131,5.383Z" transform="translate(-202.801 -6.6)" fill="#fff"/>
    <path id="Path_2253" data-name="Path 2253" d="M391.37,262.158c0,.252.124.473.409.473h.5a.417.417,0,0,0,.473-.473v-10.55a5.282,5.282,0,0,1,4.41-2.487,4.214,4.214,0,0,1,1.951.473c.252.124.5.1.6-.188l.188-.565a.514.514,0,0,0-.377-.661,6.565,6.565,0,0,0-2.267-.409,5.892,5.892,0,0,0-4.63,2.2l-.156-1.482c-.032-.284-.188-.409-.409-.409h-.22a.463.463,0,0,0-.473.473Z" transform="translate(-190.806 -6.606)" fill="#fff"/>
    <path id="Path_2254" data-name="Path 2254" d="M379.928,239.177a1.214,1.214,0,1,0,0-2.427,1.214,1.214,0,1,0,0,2.427" transform="translate(-183.193)" fill="#fff"/>
    <path id="Path_2255" data-name="Path 2255" d="M380.16,262.625c0,.252.124.473.409.473h.5a.417.417,0,0,0,.473-.473v-13.6a.508.508,0,0,0-.473-.473h-.441a.463.463,0,0,0-.473.473Z" transform="translate(-184.086 -7.074)" fill="#fff"/>
    <path id="Path_2256" data-name="Path 2256" d="M339.94,248.756c0,4.25,2.836,7.622,6.613,7.622a7.111,7.111,0,0,0,5.1-2.111l.1,1.29a.5.5,0,0,0,.537.473h.188a.508.508,0,0,0,.473-.473V237.233a.506.506,0,0,0-.441-.473h-.473a.445.445,0,0,0-.473.473v5.355a7.932,7.932,0,0,0-4.6-1.418c-4.13,0-7.026,3.4-7.026,7.586m1.386,0a5.971,5.971,0,0,1,5.824-6.237,7,7,0,0,1,4.41,1.638v8.407a6.024,6.024,0,0,1-4.911,2.455C343.593,255.025,341.326,252.129,341.326,248.756Z" transform="translate(-159.976 -0.006)" fill="#fff"/>
    <path id="Path_2257" data-name="Path 2257" d="M87.133,246.727a1.674,1.674,0,0,1,1.342,1.594c0,.973-.02.717-.008,1.266.012.633-.2.785-.461.909a.81.81,0,0,1-.2.044l-14.736.012v-.845l.188-1.43a13.739,13.739,0,0,1,19.507-10.158,13.971,13.971,0,0,1,1.891,1.105l9.906,5.732a14.213,14.213,0,0,1-4.919.613c-4.094-.24-7.674-2.5-10.719-5.027a3.436,3.436,0,0,0-5.632,2.648c0,2.748,1.911,3.02,3.841,3.537" transform="translate(0 -0.007)" fill="#fff" fill-rule="evenodd"/>
    <path id="Path_2258" data-name="Path 2258" d="M91.27,264.467c0-.973.02-.717.008-1.266-.012-.633.2-.785.457-.905a.662.662,0,0,1,.2-.044l14.736-.012v.845l-.188,1.43a13.739,13.739,0,0,1-19.507,10.158,13.966,13.966,0,0,1-1.891-1.106l-9.906-5.732a14.214,14.214,0,0,1,4.919-.613c4.1.24,7.674,2.5,10.719,5.027a3.436,3.436,0,0,0,5.632-2.648c.008-4.558-5.127-2.3-5.179-5.135" transform="translate(-1.265 -15.28)" fill="#fff" fill-rule="evenodd"/>
  </g>
</svg>
