<svg xmlns="http://www.w3.org/2000/svg" width="36" height="36" viewBox="0 0 36 36">
  <g id="Group_54972" data-name="Group 54972" transform="translate(-324 -683)">
    <circle id="Ellipse_4268" data-name="Ellipse 4268" cx="18" cy="18" r="18" transform="translate(324 683)" fill="#f66c9f" opacity="0.099"/>
    <g id="baseline-add_to_home_screen-24px" transform="translate(330 690)">
      <path id="Path_1014" data-name="Path 1014" d="M0,0H24V24H0Z" fill="none"/>
      <path id="Path_1015" data-name="Path 1015" d="M18,1.01,8,1A2.006,2.006,0,0,0,6,3V6H8V5H18V19H8V18H6v3a2.006,2.006,0,0,0,2,2H18a2.006,2.006,0,0,0,2-2V3A2,2,0,0,0,18,1.01ZM10,15h2V8H5v2H8.59L3,15.59,4.41,17,10,11.41Z" fill="#f66c9f"/>
      <path id="Path_1016" data-name="Path 1016" d="M0,0H24V24H0Z" fill="none"/>
    </g>
  </g>
</svg>
