<svg xmlns="http://www.w3.org/2000/svg" width="100" height="100" viewBox="0 0 100 100">
  <g id="Group_54963" data-name="Group 54963" transform="translate(-1139 -681)">
    <circle id="Ellipse_4269" data-name="Ellipse 4269" cx="50" cy="50" r="50" transform="translate(1139 681)" fill="#177eb9" opacity="0.201"/>
    <path id="loan" d="M40.793,2a4.291,4.291,0,0,0-4.286,4.286V7.714a1.426,1.426,0,0,0,.073.452l.8,2.405H33.768a1.43,1.43,0,0,0-1.278.787l-2.467,4.927H26.508V14.857a1.429,1.429,0,0,0-1.429-1.429H5.2a1.429,1.429,0,0,0,0,2.857h7.026V39.143H5.2A1.429,1.429,0,0,0,5.2,42H25.079a1.429,1.429,0,0,0,1.429-1.429V39.143h3.806l2.439,2.439a1.43,1.43,0,0,0,.91.4L19.08,61.431A12.853,12.853,0,0,0,29.365,82H60.793A12.853,12.853,0,0,0,71.078,61.431L55.944,41.252a4.257,4.257,0,0,0,.765-6.4,4.231,4.231,0,0,0,0-5.714,4.231,4.231,0,0,0,0-5.714,4.253,4.253,0,0,0-2.667-7.093l.982-3.934,1.406-4.235a1.431,1.431,0,0,0,.078-.452V6.286a4.266,4.266,0,0,0-7.143-3.17,4.215,4.215,0,0,0-5.714,0A4.25,4.25,0,0,0,40.793,2Zm0,2.857a1.431,1.431,0,0,1,1.429,1.429V7.714a1.429,1.429,0,1,0,2.857,0V6.286a1.429,1.429,0,1,1,2.857,0V7.714a1.429,1.429,0,0,0,2.857,0V6.286a1.429,1.429,0,1,1,2.857,0v1.2l-1.356,4.063c-.006.017,0,.036-.006.056a.325.325,0,0,0-.022.056l-1.161,4.626H41.9l-1.155-4.632c-.006-.02-.022-.036-.028-.056s0-.036-.006-.05L39.359,7.485v-1.2h.006A1.431,1.431,0,0,1,40.793,4.857Zm-6.144,8.571h3.6l1.161,4.632c.011.04.036.074.05.112a1.183,1.183,0,0,0,.084.2,1.508,1.508,0,0,0,.173.251,1.3,1.3,0,0,0,.134.145c.026.023.041.055.067.078,0,0,.008,0,.011.006a1.292,1.292,0,0,0,.2.106,1.023,1.023,0,0,0,.156.084,1.273,1.273,0,0,0,.508.106h12.74A1.429,1.429,0,0,1,53.533,22H46.826a1.429,1.429,0,1,0,0,2.857h6.708a1.429,1.429,0,0,1,0,2.857H46.826a1.429,1.429,0,1,0,0,2.857h6.708a1.429,1.429,0,0,1,0,2.857H46.826a1.429,1.429,0,1,0,0,2.857h6.708a1.429,1.429,0,1,1,0,2.857H34.359L31.92,36.7a1.5,1.5,0,0,0-.469-.312,1.427,1.427,0,0,0-.541-.106h-4.4V19.143h4.4a1.393,1.393,0,0,0,.675-.19,1.307,1.307,0,0,0,.145-.1,1.4,1.4,0,0,0,.391-.43c.017-.029.053-.036.067-.067Zm-19.57,2.857H23.65V39.143H15.079Zm4.286,17.143a1.429,1.429,0,1,0,1.429,1.429A1.429,1.429,0,0,0,19.365,33.429ZM37.222,42h2.3L38.3,45.856a1.428,1.428,0,1,0,2.723.859L42.518,42H43.65v4.286a1.429,1.429,0,1,0,2.857,0V42H47.64l1.49,4.715a1.428,1.428,0,1,0,2.723-.859L50.631,42h2.3L68.79,63.138a10,10,0,0,1-8,16H29.365a10,10,0,0,1-8-16Zm2.143,11.35a1.429,1.429,0,1,0,0,2.857h2.857a4.275,4.275,0,0,1,4.035,2.9H39.365a1.429,1.429,0,1,0,0,2.857h6.864a4.276,4.276,0,0,1-4.007,2.812H39.365a1.429,1.429,0,0,0-1.429,1.429.064.064,0,0,0,.006.022,1.41,1.41,0,0,0,.413,1.032l8.571,8.571a1.428,1.428,0,0,0,2.02-2.02l-6.228-6.228a7.133,7.133,0,0,0,6.49-5.619h1.585a1.429,1.429,0,0,0,0-2.857H49.225a7.086,7.086,0,0,0-1.323-2.9h2.891a1.429,1.429,0,0,0,0-2.857H39.365Z" transform="translate(1150.232 689)" fill="#177eb9"/>
  </g>
</svg>
