<svg xmlns="http://www.w3.org/2000/svg" width="100" height="100" viewBox="0 0 100 100">
  <g id="Group_54962" data-name="Group 54962" transform="translate(-1357 -681)">
    <circle id="Ellipse_4270" data-name="Ellipse 4270" cx="50" cy="50" r="50" transform="translate(1357 681)" fill="#f66c9f" opacity="0.201"/>
    <path id="savings" d="M51.25,25v1.25a1.25,1.25,0,0,0,2.5,0V25a5,5,0,0,0,2.75-.825,5.177,5.177,0,0,0,1.675-1.85A4.855,4.855,0,0,0,58.75,20a5.015,5.015,0,0,0-5-5h-2.5a2.5,2.5,0,0,1,0-5h2.5a2.5,2.5,0,0,1,2.5,2.5,1.25,1.25,0,0,0,2.5,0,5.015,5.015,0,0,0-5-5V6.25a1.25,1.25,0,0,0-2.5,0V7.5a5,5,0,0,0,0,10h2.5a2.5,2.5,0,0,1,2.5,2.5,2.25,2.25,0,0,1-.225,1,2.478,2.478,0,0,1-2.275,1.5h-2.5a2.5,2.5,0,0,1-2.425-1.9,2.465,2.465,0,0,1-.075-.6,1.251,1.251,0,1,0-2.5-.075V20a5.015,5.015,0,0,0,5,5Zm27.5,12.5a1.25,1.25,0,0,0-1.25,1.25A6.25,6.25,0,0,1,71.25,45c-.105,0-.22-.035-.325-.04a4.162,4.162,0,0,0,.025-.535,25.265,25.265,0,0,0-6.75-16.95A16.05,16.05,0,0,0,68.75,16.25a16.25,16.25,0,1,0-32.5,0,1.425,1.425,0,0,0,.025.325A35.923,35.923,0,0,0,24.8,19l-7.9-4.825a1.25,1.25,0,0,0-1.25-.025,1.272,1.272,0,0,0-.65,1.1v9.575A26.782,26.782,0,0,0,6.025,40H3.75A3.75,3.75,0,0,0,0,43.75v7.5A3.75,3.75,0,0,0,3.75,55h4.3A28.668,28.668,0,0,0,17.5,65.95v10.3A3.75,3.75,0,0,0,21.25,80h7.5a3.75,3.75,0,0,0,3.75-3.75V71.9A36.822,36.822,0,0,0,45,71.725V76.25A3.75,3.75,0,0,0,48.75,80h7.5A3.75,3.75,0,0,0,60,76.25v-11A26.862,26.862,0,0,0,70.75,47.475V47.44c.162,0,.332.06.5.06A8.75,8.75,0,0,0,80,38.75a1.25,1.25,0,0,0-1.25-1.25ZM52.5,2.5a13.722,13.722,0,0,1,9.95,23.2,11.485,11.485,0,0,1-1.85,1.625A13.458,13.458,0,0,1,52.5,30,13.8,13.8,0,0,1,39.025,19a11.78,11.78,0,0,1-.25-2.5.85.85,0,0,1-.025-.25A13.775,13.775,0,0,1,52.5,2.5ZM68.4,45.75a1.215,1.215,0,0,0-.025.3A24.207,24.207,0,0,1,58.025,63.6a1.3,1.3,0,0,0-.525,1.025V76.25a1.25,1.25,0,0,1-1.25,1.25h-7.5a1.25,1.25,0,0,1-1.25-1.25V70.2a1.2,1.2,0,0,0-.475-.975,1.138,1.138,0,0,0-.775-.275,1.026,1.026,0,0,0-.275.025,35,35,0,0,1-14.5.2,1.21,1.21,0,0,0-1.025.275,1.25,1.25,0,0,0-.45.95v5.85a1.25,1.25,0,0,1-1.25,1.25h-7.5A1.25,1.25,0,0,1,20,76.25V65.3a1.228,1.228,0,0,0-.55-1.025A26.25,26.25,0,0,1,10,53.25a1.263,1.263,0,0,0-1.15-.75H3.75A1.25,1.25,0,0,1,2.5,51.25v-7.5A1.25,1.25,0,0,1,3.75,42.5H7.075a1.262,1.262,0,0,0,1.25-1.075A24.322,24.322,0,0,1,17.05,26.35a1.235,1.235,0,0,0,.45-.95V17.475l6.525,3.975a1.2,1.2,0,0,0,1.125.1,33.862,33.862,0,0,1,11.35-2.5,16.272,16.272,0,0,0,16,13.45,15.965,15.965,0,0,0,9.85-3.375,22.783,22.783,0,0,1,6.1,15.3C68.45,44.875,68.425,45.3,68.4,45.75ZM17.5,37.5A2.5,2.5,0,1,0,20,40,2.5,2.5,0,0,0,17.5,37.5Z" transform="translate(1367 691)" fill="#f66c9f"/>
  </g>
</svg>
