<svg xmlns="http://www.w3.org/2000/svg" width="40" height="40" viewBox="0 0 40 40">
  <g id="Group_56423" data-name="Group 56423" transform="translate(-726 -733)">
    <rect id="Rectangle_19257" data-name="Rectangle 19257" width="40" height="40" rx="8" transform="translate(726 733)" fill="#f66c9f" opacity="0.1"/>
    <g id="noun-recovery-2076983" transform="translate(659.201 721.5)">
      <path id="Path_31762" data-name="Path 31762" d="M88.9,25.387A14.162,14.162,0,0,0,87.5,31.5a14.012,14.012,0,1,0,4.34-10.127l-1.54-1.54V24.5h4.667l-1.82-1.82a12.147,12.147,0,1,1-3.78,8.82,12.551,12.551,0,0,1,1.353-5.6" transform="translate(-14.701)" fill="#f66c9f"/>
      <path id="Path_31763" data-name="Path 31763" d="M280,231.233a3.733,3.733,0,1,0,3.733-3.733A3.744,3.744,0,0,0,280,231.233Zm6.02-2.147-1.867,4.667a.494.494,0,0,1-.327.28h-.093a.424.424,0,0,1-.327-.14l-1.867-1.867.653-.653,1.353,1.353,1.587-4.013Z" transform="translate(-196.934 -198.8)" fill="#f66c9f"/>
      <path id="Path_31764" data-name="Path 31764" d="M250.6,151.38a9.227,9.227,0,0,1-5.6,2.193v7.373a4.109,4.109,0,0,0,1.82,3.453l3.78,2.613,3.78-2.613a4.227,4.227,0,0,0,1.82-3.453v-7.373A9.227,9.227,0,0,1,250.6,151.38Zm4.667,7.793a4.667,4.667,0,1,1-4.667-4.667A4.68,4.68,0,0,1,255.267,159.173Z" transform="translate(-163.801 -126.74)" fill="#f66c9f"/>
    </g>
  </g>
</svg>
