<svg xmlns="http://www.w3.org/2000/svg" width="40" height="40" viewBox="0 0 40 40">
  <g id="Group_56421" data-name="Group 56421" transform="translate(-322 -538)">
    <rect id="Rectangle_19257" data-name="Rectangle 19257" width="40" height="40" rx="8" transform="translate(322 538)" fill="#f5a818" opacity="0.1"/>
    <g id="noun-leader-1545926" transform="translate(258 544)">
      <path id="Path_31756" data-name="Path 31756" d="M287,3.5A3.5,3.5,0,1,1,283.5,0,3.5,3.5,0,0,1,287,3.5" transform="translate(-199.499)" fill="#f5a818"/>
      <path id="Path_31757" data-name="Path 31757" d="M252.961,175H252a.881.881,0,0,0-.62.255l-1.13,1.13-1.13-1.13a.881.881,0,0,0-.62-.255h-.957a1.739,1.739,0,0,0-1.739,1.552l-.8,6.212a.876.876,0,0,0,.868.985h.945l.731,8.925a1.744,1.744,0,0,0,1.741,1.575h1.916a1.749,1.749,0,0,0,1.743-1.591l.73-8.909h.943a.873.873,0,0,0,.656-.3.862.862,0,0,0,.212-.689l-.795-6.188A1.743,1.743,0,0,0,252.961,175Z" transform="translate(-166.251 -166.25)" fill="#f5a818"/>
      <path id="Path_31758" data-name="Path 31758" d="M462,3.5A3.5,3.5,0,1,1,458.5,0,3.5,3.5,0,0,1,462,3.5" transform="translate(-365.749)" fill="#f5a818"/>
      <path id="Path_31759" data-name="Path 31759" d="M108.5,0A3.5,3.5,0,1,0,112,3.5,3.5,3.5,0,0,0,108.5,0Z" transform="translate(-33.249)" fill="#f5a818"/>
      <path id="Path_31760" data-name="Path 31760" d="M467.176,176.582A1.742,1.742,0,0,0,465.437,175h-.959a.881.881,0,0,0-.62.255l-1.13,1.13-1.13-1.13a.88.88,0,0,0-.618-.255h-.959a1.661,1.661,0,0,0-.31.058,3.406,3.406,0,0,1,.455,1.316l.793,6.167a2.619,2.619,0,0,1-.64,2.076,2.539,2.539,0,0,1-.868.616l.581,5.693a1.744,1.744,0,0,0,1.741,1.575h1.916a1.749,1.749,0,0,0,1.743-1.591l.728-7.16h.943a.873.873,0,0,0,.656-.3.862.862,0,0,0,.212-.689Z" transform="translate(-369.977 -166.255)" fill="#f5a818"/>
      <path id="Path_31761" data-name="Path 31761" d="M77.022,182.543l.8-6.215a3.235,3.235,0,0,1,.436-1.274A1.636,1.636,0,0,0,77.96,175H77a.881.881,0,0,0-.62.255l-1.13,1.13-1.13-1.13A.88.88,0,0,0,73.5,175h-.959a1.739,1.739,0,0,0-1.739,1.552l-.8,6.212a.876.876,0,0,0,.868.985h.945l.731,7.175a1.744,1.744,0,0,0,1.741,1.575H76.21a1.749,1.749,0,0,0,1.743-1.591l.581-5.678a2.527,2.527,0,0,1-1.512-2.686Z" transform="translate(0 -166.249)" fill="#f5a818"/>
    </g>
  </g>
</svg>
