<svg xmlns="http://www.w3.org/2000/svg" width="40" height="40" viewBox="0 0 40 40">
  <g id="Group_56422" data-name="Group 56422" transform="translate(-322 -733)">
    <rect id="Rectangle_19257" data-name="Rectangle 19257" width="40" height="40" rx="8" transform="translate(322 733)" fill="#4d49af" opacity="0.1"/>
    <path id="noun-request-1617977" d="M153.752,70.053l-.41.41h-4.95v-4.95l12.784-12.785,1.215-1.215v-2.05a2.8,2.8,0,0,0-2.8-2.8h-12.6l-7,7v18.2a2.8,2.8,0,0,0,2.8,2.8h16.8a2.8,2.8,0,0,0,2.8-2.8V61.412Zm-11.66-14.99,6.3-6.3v6.3Zm10.67,14h-2.97v-2.97l12.375-12.375,2.97,2.97Zm15.344-15.345-1.98,1.98-2.97-2.97,1.98-1.98a1.4,1.4,0,0,1,1.98,0l.99.99A1.4,1.4,0,0,1,168.106,53.718Z" transform="translate(188.008 692.338)" fill="#4d49af"/>
  </g>
</svg>
