<svg xmlns="http://www.w3.org/2000/svg" width="40" height="40" viewBox="0 0 40 40">
  <g id="Group_56426" data-name="Group 56426" transform="translate(-1130 -733)">
    <rect id="Rectangle_19257" data-name="Rectangle 19257" width="40" height="40" rx="8" transform="translate(1130 733)" fill="#2b9658" opacity="0.1"/>
    <path id="noun-approval-1872977" d="M171.819,87.223l-1.261-2.051h0a1.588,1.588,0,0,1-.234-.874l.066-2.407h0a1.586,1.586,0,0,0-.831-1.438l-2.118-1.146a1.586,1.586,0,0,1-.64-.64l-1.146-2.117h0a1.586,1.586,0,0,0-1.395-.831h-.044l-2.407.066h-.044a1.583,1.583,0,0,1-.83-.235l-2.052-1.261a1.587,1.587,0,0,0-1.661,0l-2.052,1.261a1.583,1.583,0,0,1-.83.235H154.3l-2.407-.066h-.044a1.586,1.586,0,0,0-1.395.831l-1.146,2.118a1.586,1.586,0,0,1-.64.64l-2.118,1.146a1.586,1.586,0,0,0-.831,1.438l.066,2.407a1.588,1.588,0,0,1-.234.874l-1.261,2.051h0a1.587,1.587,0,0,0,0,1.661l1.261,2.051h0a1.588,1.588,0,0,1,.234.874l-.066,2.407h0a1.586,1.586,0,0,0,.831,1.438l2.118,1.146a1.586,1.586,0,0,1,.64.64l1.146,2.117h0a1.586,1.586,0,0,0,1.395.831h.044l2.407-.066h.044a1.584,1.584,0,0,1,.83.235l2.052,1.261h0a1.587,1.587,0,0,0,1.661,0l2.052-1.261a1.582,1.582,0,0,1,.83-.235h.044l2.407.066h.044a1.587,1.587,0,0,0,1.395-.831l1.146-2.117h0a1.586,1.586,0,0,1,.64-.64l2.118-1.146a1.586,1.586,0,0,0,.831-1.438l-.066-2.407a1.588,1.588,0,0,1,.234-.874l1.261-2.051h0a1.587,1.587,0,0,0,0-1.661Zm-7.767-1.35L157.707,93.8h0a1.588,1.588,0,0,1-1.151.592c-.029,0-.059,0-.088,0a1.58,1.58,0,0,1-1.121-.465l-3.172-3.172a1.586,1.586,0,0,1,2.243-2.243l1.919,1.919,5.237-6.548a1.587,1.587,0,0,1,2.479,1.983Z" transform="translate(991.947 664.945)" fill="#2b9658"/>
  </g>
</svg>
