<svg xmlns="http://www.w3.org/2000/svg" width="40" height="40" viewBox="0 0 40 40">
  <g id="Group_56425" data-name="Group 56425" transform="translate(-1130 -538)">
    <rect id="Rectangle_19257" data-name="Rectangle 19257" width="40" height="40" rx="8" transform="translate(1130 538)" fill="#177eb9" opacity="0.1"/>
    <g id="noun-loan-2083916" transform="translate(1054.516 490.547)">
      <path id="Path_31765" data-name="Path 31765" d="M225.087,318.739a.5.5,0,0,1-.367.472l-13.843,4.824a4.106,4.106,0,0,1-1.363.21,4.755,4.755,0,0,1-1.206-.157l-9.333-2.779v-9.071h.682a11.549,11.549,0,0,1,6.607,2.15c1.258.315,7.6-1.311,7.183,2.622a2.624,2.624,0,0,1-.472,1.258l1.573.1,6.974-2.2a2.681,2.681,0,0,1,3.566,2.569Z" transform="translate(-113.044 -242.792)" fill="#177eb9"/>
      <path id="Path_31766" data-name="Path 31766" d="M84.881,283.92v10.906a.564.564,0,0,1-.524.524H79.009a.564.564,0,0,1-.524-.524V283.92a.525.525,0,0,1,.524-.524h5.348A.525.525,0,0,1,84.881,283.92Z" transform="translate(0 -215.733)" fill="#177eb9"/>
      <path id="Path_31767" data-name="Path 31767" d="M363.93,136.61v2.2c-.734-.21-1.206-.42-1.206-1.154C362.724,137.03,363.3,136.662,363.93,136.61Z" transform="translate(-266.674 -78.018)" fill="#177eb9"/>
      <path id="Path_31768" data-name="Path 31768" d="M397.98,202.246c0,.682-.629,1-1.311,1.1v-2.255c.734.157,1.311.42,1.311,1.154Z" transform="translate(-298.522 -138.515)" fill="#177eb9"/>
      <path id="Path_31769" data-name="Path 31769" d="M259.209,53.453h-.052a8.521,8.521,0,0,0,.052,17.041h.052A8.515,8.515,0,0,0,267.7,62v-.052a8.459,8.459,0,0,0-8.494-8.495Zm.524,12.69v.891h-.786V66.09a5.357,5.357,0,0,1-3.094-1.363l.891-1.1a4.389,4.389,0,0,0,2.2,1.1V62.262c-1.573-.367-2.779-.891-2.779-2.517a2.644,2.644,0,0,1,2.727-2.569v-.629h.787v.629a4.99,4.99,0,0,1,2.622.944l-.786,1.154a4.039,4.039,0,0,0-1.783-.734V60.9h.052c1.626.367,2.831.944,2.831,2.569a2.768,2.768,0,0,1-2.884,2.674Z" transform="translate(-161.586)" fill="#177eb9"/>
    </g>
  </g>
</svg>
