<svg xmlns="http://www.w3.org/2000/svg" width="40" height="40" viewBox="0 0 40 40">
  <g id="Group_56424" data-name="Group 56424" transform="translate(-726 -538)">
    <rect id="Rectangle_19257" data-name="Rectangle 19257" width="40" height="40" rx="8" transform="translate(726 538)" fill="#7c3b29" opacity="0.1"/>
    <g id="noun-user-162961" transform="translate(607.809 506.113)">
      <path id="Path_31770" data-name="Path 31770" d="M142.542,61.167a5.014,5.014,0,0,1,2.747-4.473c-1.638-.566-2.738-1.064-2.738-1.064a4.1,4.1,0,0,1-.567-1.695,7.494,7.494,0,0,0,1.277-3.162.4.4,0,0,0,.225.076c.3,0,.714-.407,1.155-1.984.456-1.632.179-2.18-.216-2.317,1.283-6.212-1.647-6.42-1.647-6.42a4.122,4.122,0,0,0-1.606-1.51,5.239,5.239,0,0,0-2.735-.73c-.182,0-.37.008-.564.025a4.733,4.733,0,0,0-1.314.254h0a5.752,5.752,0,0,0-1.445.749,7.749,7.749,0,0,0-1.488,1.243,6.081,6.081,0,0,0-1.608,2.851,5.385,5.385,0,0,0,.136,3.181c-.033,0-.066,0-.1,0-.5,0-1.013.394-.464,2.357.428,1.529.826,1.958,1.128,1.983a7.617,7.617,0,0,0,1.369,3.468,4.412,4.412,0,0,1-.469,1.5,34.074,34.074,0,0,1-5.982,2.136c-2.119.522-2.458,2.673-2.442,4.086,0,.186,0,.361.013.52h0s0,.068,0,.183,0,.363.012.683a30.514,30.514,0,0,0,12.8,2.784,30.936,30.936,0,0,0,6.546-.7,5.007,5.007,0,0,1-2.02-4.023Z" transform="translate(0)" fill="#7c3b29"/>
      <path id="Path_31771" data-name="Path 31771" d="M452.806,377.67a3.632,3.632,0,1,0,3.632,3.632A3.632,3.632,0,0,0,452.806,377.67Zm2.037,4.2h-1.471v1.471h-1.133v-1.471h-1.471v-1.133h1.471v-1.471h1.133v1.471h1.471Z" transform="translate(-305.248 -320.135)" fill="#7c3b29"/>
    </g>
  </g>
</svg>
