<svg id="Group_30" data-name="Group 30" xmlns="http://www.w3.org/2000/svg" width="130.6015" height="50" viewBox="0 0 171.203 56">
  <path id="Path_127" data-name="Path 127" d="M267.843,984.263a7.566,7.566,0,0,1-7.567,7.567H104.207a7.568,7.568,0,0,1-7.567-7.567V943.4a7.57,7.57,0,0,1,7.567-7.567H260.275a7.57,7.57,0,0,1,7.567,7.567Z" transform="translate(-96.64 -935.83)"/>
  <g id="Group_26" data-name="Group 26" transform="translate(11.486 8.706)" width="8" height="8">
    <path id="Path_128" data-name="Path 128" d="M164.8,1009.166a27.571,27.571,0,0,1-2.507,4.68c-1.628,2.477-3.925,5.565-6.767,5.592-2.527.023-3.177-1.644-6.606-1.624s-4.145,1.654-6.671,1.631c-2.842-.026-5.018-2.812-6.645-5.293-4.555-6.931-5.027-15.066-2.222-19.388a10.07,10.07,0,0,1,8.1-4.873c3.012,0,4.909,1.654,7.4,1.654,2.419,0,3.892-1.654,7.374-1.654a9.832,9.832,0,0,1,7.413,3.915A8.482,8.482,0,0,0,164.8,1009.166Z" transform="translate(-131.64 -980.856)" fill="#fff"/>
    <g id="Group_25" data-name="Group 25" transform="translate(15.934)">
      <path id="Path_129" data-name="Path 129" d="M186.239,968.624a8.442,8.442,0,0,0,1.877-6.264,9.133,9.133,0,0,0-5.9,3.173,7.855,7.855,0,0,0-1.93,6.11A7.722,7.722,0,0,0,186.239,968.624Z" transform="translate(-180.196 -962.36)" fill="#fff"/>
    </g>
  </g>
  <g id="Group_29" data-name="Group 29" transform="translate(51.99 8.788)">
    <g id="Group_27" data-name="Group 27" transform="translate(0.003 13.415)">
      <path id="Path_130" data-name="Path 130" d="M261.6,1004.42l-6.524,19.2h2.986l1.946-5.894h6.314l2,5.894H271.4l-6.55-19.2H261.6Zm1.546,3.157c.22.856.459,1.746.765,2.707l1.759,5.09h-5l1.733-5.123C262.667,1009.421,262.916,1008.525,263.149,1007.577Z" transform="translate(-255.08 -1004.115)" fill="#fff"/>
      <path id="Path_131" data-name="Path 131" d="M315.41,1019.59a5.434,5.434,0,0,0-4.617,2.215l-.115-1.91H308.02l.016.243c.079,1.188.112,2.5.112,4.378v14.8h2.9v-6.9a5.1,5.1,0,0,0,3.971,1.706,5.994,5.994,0,0,0,4.4-1.87,7.937,7.937,0,0,0,1.943-5.589,7.74,7.74,0,0,0-1.687-5.1A5.533,5.533,0,0,0,315.41,1019.59Zm-.725,2.4c2.589,0,3.748,2.4,3.748,4.775,0,3.065-1.48,4.972-3.859,4.972a3.525,3.525,0,0,1-3.423-2.694,3.637,3.637,0,0,1-.1-.942v-2.336a4.23,4.23,0,0,1,.092-.715c.013-.079.03-.157.043-.236A3.68,3.68,0,0,1,314.685,1021.992Z" transform="translate(-290.647 -1014.307)" fill="#fff"/>
      <path id="Path_132" data-name="Path 132" d="M361,1019.59a5.434,5.434,0,0,0-4.617,2.215l-.115-1.91H353.61l.013.243c.079,1.191.112,2.5.112,4.378v14.8h2.9v-6.9a5.1,5.1,0,0,0,3.971,1.706,6.007,6.007,0,0,0,4.4-1.87,7.952,7.952,0,0,0,1.943-5.589,7.724,7.724,0,0,0-1.69-5.1A5.533,5.533,0,0,0,361,1019.59Zm-.725,2.4c2.589,0,3.748,2.4,3.748,4.775,0,3.065-1.48,4.972-3.859,4.972a3.522,3.522,0,0,1-3.423-2.694,3.637,3.637,0,0,1-.1-.942v-2.336a4.271,4.271,0,0,1,.092-.719c.013-.079.03-.157.043-.233A3.68,3.68,0,0,1,360.272,1021.992Z" transform="translate(-321.277 -1014.307)" fill="#fff"/>
      <path id="Path_133" data-name="Path 133" d="M419.064,1011.93c-2.711-1.05-3.58-1.874-3.58-3.4,0-1.283,1.021-2.579,3.3-2.579a6.586,6.586,0,0,1,3.41.857l.246.151.82-2.425-.161-.1a8.415,8.415,0,0,0-4.23-.948c-3.7,0-6.291,2.185-6.291,5.316,0,2.523,1.621,4.289,5.1,5.552,2.464.922,3.383,1.864,3.383,3.482,0,1.831-1.414,2.967-3.692,2.967a7.952,7.952,0,0,1-4.187-1.188l-.253-.161-.781,2.481.144.1a9.951,9.951,0,0,0,4.909,1.263c4.991,0,6.763-3.045,6.763-5.651C423.964,1014.962,422.543,1013.3,419.064,1011.93Z" transform="translate(-360.606 -1003.49)" fill="#fff"/>
      <path id="Path_134" data-name="Path 134" d="M453.975,1010.44l-2.848.9v2.412H449.04v2.32h2.087v7.111a5.44,5.44,0,0,0,1,3.685,3.722,3.722,0,0,0,2.809,1.1,6.777,6.777,0,0,0,2.245-.348l.164-.059-.138-2.327-.279.085a4.416,4.416,0,0,1-1.352.158c-1.126,0-1.6-.712-1.6-2.382v-7.029h3.5v-2.32h-3.5Z" transform="translate(-385.391 -1008.159)" fill="#fff"/>
      <path id="Path_135" data-name="Path 135" d="M482.571,1019.59c-4.063,0-6.9,3.032-6.9,7.374,0,4.21,2.747,7.154,6.681,7.154h.026c3.324,0,6.9-2.317,6.9-7.4a7.351,7.351,0,0,0-1.851-5.139A6.47,6.47,0,0,0,482.571,1019.59Zm-.085,2.291c2.612,0,3.8,2.547,3.8,4.916,0,2.911-1.624,5.024-3.859,5.024h-.03c-2.2,0-3.8-2.077-3.8-4.942C478.6,1024.394,479.8,1021.88,482.486,1021.88Z" transform="translate(-403.282 -1014.307)" fill="#fff"/>
      <path id="Path_136" data-name="Path 136" d="M529.439,1019.724l-.174-.043a2.865,2.865,0,0,0-.722-.092,4.145,4.145,0,0,0-3.643,2.34l-.085-2.031H522.21l.016.243c.079,1.149.108,2.442.108,4.184l-.026,9.49h2.9v-7.4a7.484,7.484,0,0,1,.079-1.126,3.209,3.209,0,0,1,3.055-2.927,6.945,6.945,0,0,1,.781.049l.312.033Z" transform="translate(-434.549 -1014.307)" fill="#fff"/>
      <path id="Path_137" data-name="Path 137" d="M550.7,1019.5c-3.866,0-6.566,3.088-6.566,7.515,0,4.259,2.688,7.013,6.845,7.013a11.112,11.112,0,0,0,4.6-.883l.174-.079-.558-2.166-.243.1a9.007,9.007,0,0,1-3.639.65,4.039,4.039,0,0,1-4.351-4.21l9.375.03.039-.187a6.425,6.425,0,0,0,.089-1.211C556.459,1023.041,554.953,1019.5,550.7,1019.5Zm-.194,2.212a2.861,2.861,0,0,1,2.133.814,4.135,4.135,0,0,1,1,2.7h-6.625C547.284,1023.549,548.33,1021.712,550.5,1021.712Z" transform="translate(-449.276 -1014.246)" fill="#fff"/>
    </g>
    <g id="Group_28" data-name="Group 28">
      <path id="Path_138" data-name="Path 138" d="M255.073,964.077a21.1,21.1,0,0,1,2.786-.187,6.21,6.21,0,0,1,4.089,1.119,3.977,3.977,0,0,1,1.437,3.275,4.6,4.6,0,0,1-1.454,3.531,6.736,6.736,0,0,1-4.479,1.309,20.011,20.011,0,0,1-2.382-.108v-8.939Zm1.319,8.046a9.631,9.631,0,0,0,1.319.052c2.786.013,4.3-1.4,4.3-3.856.016-2.169-1.332-3.5-4.089-3.5a8.39,8.39,0,0,0-1.529.121Z" transform="translate(-255.07 -963.47)" fill="#fff"/>
      <path id="Path_139" data-name="Path 139" d="M287.535,978.262a3.274,3.274,0,0,1-3.475-3.357,3.364,3.364,0,0,1,3.593-3.465,3.25,3.25,0,0,1,3.492,3.344,3.38,3.38,0,0,1-3.593,3.478Zm.046-.893a2.323,2.323,0,0,0,2.2-2.546,2.217,2.217,0,1,0-2.218,2.546Z" transform="translate(-274.547 -968.542)" fill="#fff"/>
      <path id="Path_140" data-name="Path 140" d="M309.255,971.89l.975,3.3c.194.729.391,1.414.525,2.09h.046c.164-.659.4-1.362.643-2.077l1.185-3.318h1.109l1.122,3.262c.269.768.479,1.47.643,2.13h.046a18.361,18.361,0,0,1,.555-2.117l1.034-3.275h1.3l-2.336,6.524h-1.2L313.8,975.3a20.349,20.349,0,0,1-.643-2.156h-.03a17.838,17.838,0,0,1-.66,2.169l-1.168,3.1h-1.2l-2.189-6.524Z" transform="translate(-290.57 -968.845)" fill="#fff"/>
      <path id="Path_141" data-name="Path 141" d="M343.889,973.353c0-.689-.016-1.227-.059-1.766H345l.076,1.067h.03a2.747,2.747,0,0,1,2.4-1.214,2.482,2.482,0,0,1,2.563,2.776v3.9h-1.316v-3.761c0-1.05-.436-1.939-1.677-1.939a1.881,1.881,0,0,0-1.769,1.214,1.62,1.62,0,0,0-.089.551v3.938h-1.319v-4.762Z" transform="translate(-314.703 -968.542)" fill="#fff"/>
      <path id="Path_142" data-name="Path 142" d="M369.35,962.61h1.319v9.572H369.35Z" transform="translate(-331.848 -962.61)" fill="#fff"/>
      <path id="Path_143" data-name="Path 143" d="M381.905,978.262a3.275,3.275,0,0,1-3.475-3.357,3.365,3.365,0,0,1,3.6-3.465,3.249,3.249,0,0,1,3.488,3.344,3.38,3.38,0,0,1-3.6,3.478Zm.046-.893a2.323,2.323,0,0,0,2.2-2.546,2.217,2.217,0,1,0-2.218,2.546Z" transform="translate(-337.949 -968.542)" fill="#fff"/>
      <path id="Path_144" data-name="Path 144" d="M409.03,976.556a9.777,9.777,0,0,0,.105,1.562h-1.185l-.121-.82h-.043a2.791,2.791,0,0,1-2.218.971,1.977,1.977,0,0,1-2.218-1.874c0-1.578,1.559-2.442,4.358-2.425v-.135c0-.538-.164-1.523-1.647-1.509a3.769,3.769,0,0,0-1.9.486l-.3-.794a5.092,5.092,0,0,1,2.4-.568c2.231,0,2.77,1.362,2.77,2.668v2.438Zm-1.29-1.765c-1.437-.026-3.072.2-3.072,1.47a1.1,1.1,0,0,0,1.227,1.132,1.826,1.826,0,0,0,1.782-1.093,1.08,1.08,0,0,0,.059-.377v-1.132Z" transform="translate(-354.691 -968.549)" fill="#fff"/>
      <path id="Path_145" data-name="Path 145" d="M432.269,962.61V970.5c0,.581.016,1.24.059,1.687h-1.185l-.059-1.132h-.03a2.711,2.711,0,0,1-2.458,1.28,3.114,3.114,0,0,1-3.117-3.318,3.252,3.252,0,0,1,3.252-3.5,2.494,2.494,0,0,1,2.189.984h.03V962.61Zm-1.316,5.7a1.95,1.95,0,0,0-.059-.512,1.9,1.9,0,0,0-1.9-1.362,2.234,2.234,0,0,0-2.172,2.507,2.163,2.163,0,0,0,2.143,2.425,1.963,1.963,0,0,0,1.933-1.414,1.828,1.828,0,0,0,.059-.512V968.31Z" transform="translate(-369.559 -962.61)" fill="#fff"/>
      <path id="Path_146" data-name="Path 146" d="M464.4,978.262a3.275,3.275,0,0,1-3.475-3.357,3.367,3.367,0,0,1,3.6-3.465,3.25,3.25,0,0,1,3.492,3.344,3.38,3.38,0,0,1-3.593,3.478Zm.046-.893a2.323,2.323,0,0,0,2.2-2.546,2.217,2.217,0,1,0-2.218,2.546Z" transform="translate(-393.369 -968.542)" fill="#fff"/>
      <path id="Path_147" data-name="Path 147" d="M487.459,973.353c0-.689-.016-1.227-.059-1.766h1.168l.075,1.067h.03a2.747,2.747,0,0,1,2.4-1.214,2.482,2.482,0,0,1,2.563,2.776v3.9h-1.319v-3.761c0-1.05-.433-1.939-1.677-1.939a1.881,1.881,0,0,0-1.769,1.214,1.62,1.62,0,0,0-.089.551v3.938h-1.319Z" transform="translate(-411.159 -968.542)" fill="#fff"/>
      <path id="Path_148" data-name="Path 148" d="M522.492,967.13v1.562h1.887v.9h-1.887v3.518c0,.807.256,1.267.988,1.267a2.667,2.667,0,0,0,.765-.082l.059.9a3.935,3.935,0,0,1-1.168.161,2.006,2.006,0,0,1-1.424-.5,2.365,2.365,0,0,1-.509-1.713v-3.56H520.08v-.9H521.2v-1.2Z" transform="translate(-433.115 -965.647)" fill="#fff"/>
      <path id="Path_149" data-name="Path 149" d="M537.7,962.61h1.319v4.072h.03a2.245,2.245,0,0,1,.945-.837,2.777,2.777,0,0,1,1.349-.338,2.479,2.479,0,0,1,2.53,2.789v3.882h-1.319v-3.747c0-1.067-.433-1.943-1.677-1.943a1.9,1.9,0,0,0-1.769,1.188,1.3,1.3,0,0,0-.092.568v3.938H537.7V962.61Z" transform="translate(-444.953 -962.61)" fill="#fff"/>
      <path id="Path_150" data-name="Path 150" d="M562.706,975.026a2.208,2.208,0,0,0,2.471,2.264,5.44,5.44,0,0,0,2.008-.325l.24.837a6.456,6.456,0,0,1-2.428.417c-2.218,0-3.567-1.336-3.567-3.288a3.32,3.32,0,0,1,3.416-3.531,2.856,2.856,0,0,1,2.98,3.075,2.791,2.791,0,0,1-.043.564Zm3.853-.85a1.752,1.752,0,0,0-1.815-1.93,2.052,2.052,0,0,0-2.021,1.93Z" transform="translate(-460.896 -968.515)" fill="#fff"/>
    </g>
  </g>
</svg>
