<svg xmlns="http://www.w3.org/2000/svg" width="22.504" height="20" viewBox="0 0 22.504 20">
  <path id="Icon_awesome-edit" data-name="Icon awesome-edit" d="M15.73,3.254l3.524,3.524a.382.382,0,0,1,0,.539L10.721,15.85l-3.626.4a.76.76,0,0,1-.84-.84l.4-3.626L15.19,3.254A.382.382,0,0,1,15.73,3.254Zm6.329-.895L20.152.452A1.528,1.528,0,0,0,18,.452L16.613,1.836a.382.382,0,0,0,0,.539L20.137,5.9a.382.382,0,0,0,.539,0l1.383-1.383a1.528,1.528,0,0,0,0-2.157ZM15,13.529v3.977H2.5V5h8.978a.48.48,0,0,0,.332-.137L13.374,3.3a.469.469,0,0,0-.332-.8H1.875A1.876,1.876,0,0,0,0,4.379V18.132a1.876,1.876,0,0,0,1.875,1.875H15.628A1.876,1.876,0,0,0,17.5,18.132V11.966a.47.47,0,0,0-.8-.332L15.14,13.2A.48.48,0,0,0,15,13.529Z" transform="translate(0 -0.007)" fill="#177eb9"/>
</svg>
