<svg xmlns="http://www.w3.org/2000/svg" xmlns:xlink="http://www.w3.org/1999/xlink" width="150.5" height="50" viewBox="0 0 189 56">
  <defs>
    <linearGradient id="linear-gradient" x1="0.915" y1="6.617" x2="-0.384" y2="5.947" gradientUnits="objectBoundingBox">
      <stop offset="0" stop-color="#00a0ff"/>
      <stop offset="0.007" stop-color="#00a1ff"/>
      <stop offset="0.26" stop-color="#00beff"/>
      <stop offset="0.512" stop-color="#00d2ff"/>
      <stop offset="0.76" stop-color="#00dfff"/>
      <stop offset="1" stop-color="#00e3ff"/>
    </linearGradient>
    <linearGradient id="linear-gradient-2" x1="1.076" y1="17.089" x2="-1.305" y2="17.089" gradientUnits="objectBoundingBox">
      <stop offset="0" stop-color="#ffe000"/>
      <stop offset="0.409" stop-color="#ffbd00"/>
      <stop offset="0.775" stop-color="orange"/>
      <stop offset="1" stop-color="#ff9c00"/>
    </linearGradient>
    <linearGradient id="linear-gradient-3" x1="0.863" y1="10.864" x2="-0.502" y2="9.095" gradientUnits="objectBoundingBox">
      <stop offset="0" stop-color="#ff3a44"/>
      <stop offset="1" stop-color="#c31162"/>
    </linearGradient>
    <linearGradient id="linear-gradient-4" x1="-0.188" y1="13.585" x2="0.421" y2="12.794" gradientUnits="objectBoundingBox">
      <stop offset="0" stop-color="#32a071"/>
      <stop offset="0.068" stop-color="#2da771"/>
      <stop offset="0.476" stop-color="#15cf74"/>
      <stop offset="0.801" stop-color="#06e775"/>
      <stop offset="1" stop-color="#00f076"/>
    </linearGradient>
  </defs>
  <g id="en_badge_web_generic" transform="translate(-10 -10)">
    <g id="Group_54938" data-name="Group 54938" transform="translate(10 10)">
      <path id="Path_31460" data-name="Path 31460" d="M192,66H17a7.021,7.021,0,0,1-7-7V17a7.021,7.021,0,0,1,7-7H192a7.021,7.021,0,0,1,7,7V59A7.021,7.021,0,0,1,192,66Z" transform="translate(-10 -10)"/>
    </g>
    <g id="Group_54940" data-name="Group 54940" transform="translate(10 10)">
      <g id="Group_54939" data-name="Group 54939">
        <path id="Path_31461" data-name="Path 31461" d="M192,11.12A5.879,5.879,0,0,1,197.88,17V59A5.879,5.879,0,0,1,192,64.88H17A5.879,5.879,0,0,1,11.12,59V17A5.879,5.879,0,0,1,17,11.12H192M192,10H17a7.021,7.021,0,0,0-7,7V59a7.021,7.021,0,0,0,7,7H192a7.021,7.021,0,0,0,7-7V17a7.021,7.021,0,0,0-7-7Z" transform="translate(-10 -10)" fill="#a6a6a6"/>
      </g>
    </g>
    <g id="Group_54941" data-name="Group 54941" transform="translate(67.89 19.618)">
      <path id="Path_31462" data-name="Path 31462" d="M59.848,21.588a3.748,3.748,0,0,1-1.05,2.8,4.071,4.071,0,0,1-3.08,1.246,4.327,4.327,0,0,1-4.368-4.382,4.191,4.191,0,0,1,1.274-3.122,4.423,4.423,0,0,1,4.816-.91,3.562,3.562,0,0,1,1.316.938l-.742.742a2.848,2.848,0,0,0-2.3-.994,3.172,3.172,0,0,0-2.3.938,3.206,3.206,0,0,0-.966,2.422,3.307,3.307,0,0,0,5.614,2.422,2.62,2.62,0,0,0,.7-1.708H55.718V20.972h4.074A4.793,4.793,0,0,1,59.848,21.588Z" transform="translate(-51.35 -16.87)" fill="#fff" stroke="#fff" stroke-width="0.2"/>
      <path id="Path_31463" data-name="Path 31463" d="M63.43,18.036H59.608V20.7h3.444V21.7H59.608v2.66H63.43V25.4h-4.9V17h4.9Z" transform="translate(-48.478 -16.818)" fill="#fff" stroke="#fff" stroke-width="0.2"/>
      <path id="Path_31464" data-name="Path 31464" d="M66.26,25.4H65.182V18.036H62.83V17H68.6v1.036H66.246V25.4Z" transform="translate(-46.758 -16.818)" fill="#fff" stroke="#fff" stroke-width="0.2"/>
      <path id="Path_31465" data-name="Path 31465" d="M69.94,25.4V17h1.078v8.4Z" transform="translate(-43.914 -16.818)" fill="#fff" stroke="#fff" stroke-width="0.2"/>
      <path id="Path_31466" data-name="Path 31466" d="M75.11,25.4H74.032V18.036H71.68V17h5.768v1.036H75.1V25.4Z" transform="translate(-43.218 -16.818)" fill="#fff" stroke="#fff" stroke-width="0.2"/>
      <path id="Path_31467" data-name="Path 31467" d="M85.722,24.36a4.36,4.36,0,0,1-6.16,0,4.536,4.536,0,0,1,0-6.216,4.1,4.1,0,0,1,3.08-1.274,4.141,4.141,0,0,1,3.08,1.274,4.5,4.5,0,0,1,0,6.216Zm-5.362-.7a3.245,3.245,0,0,0,4.564,0,3.3,3.3,0,0,0,.938-2.408,3.249,3.249,0,0,0-.938-2.408,3.245,3.245,0,0,0-4.564,0,3.56,3.56,0,0,0,0,4.816Z" transform="translate(-40.558 -16.87)" fill="#fff" stroke="#fff" stroke-width="0.2"/>
      <path id="Path_31468" data-name="Path 31468" d="M85.58,25.4V17H86.9l4.088,6.538h.042l-.042-1.624V17h1.078v8.4h-1.12l-4.27-6.846H86.63l.042,1.624V25.4Z" transform="translate(-37.658 -16.818)" fill="#fff" stroke="#fff" stroke-width="0.2"/>
    </g>
    <path id="Path_31469" data-name="Path 31469" d="M88.98,33.63a5.95,5.95,0,1,0,5.978,5.95A5.872,5.872,0,0,0,88.98,33.63Zm0,9.562a3.621,3.621,0,1,1,3.36-3.612A3.441,3.441,0,0,1,88.98,43.192ZM75.932,33.63a5.95,5.95,0,1,0,5.978,5.95A5.872,5.872,0,0,0,75.932,33.63Zm0,9.562a3.621,3.621,0,1,1,3.36-3.612A3.441,3.441,0,0,1,75.932,43.192ZM60.42,35.464v2.52h6.048A5.315,5.315,0,0,1,65.1,41.162a6.175,6.175,0,0,1-4.662,1.848,6.721,6.721,0,0,1,0-13.44,6.4,6.4,0,0,1,4.55,1.806L66.762,29.6A8.814,8.814,0,0,0,60.42,27.05a9.255,9.255,0,1,0,0,18.508,8.441,8.441,0,0,0,6.454-2.59,8.356,8.356,0,0,0,2.184-5.908,7.638,7.638,0,0,0-.14-1.582h-8.5Zm63.434,1.96a5.525,5.525,0,0,0-5.1-3.794,5.654,5.654,0,0,0-5.614,5.95,5.823,5.823,0,0,0,5.908,5.95,5.9,5.9,0,0,0,4.956-2.632l-2.03-1.358a3.387,3.387,0,0,1-2.926,1.652,3.028,3.028,0,0,1-2.884-1.806l7.966-3.29Zm-8.12,1.988a3.263,3.263,0,0,1,3.108-3.472,2.312,2.312,0,0,1,2.212,1.26Zm-6.468,5.768h2.618V27.68h-2.618Zm-4.284-10.22h-.1a4.116,4.116,0,0,0-3.136-1.33,5.962,5.962,0,0,0,0,11.914,4.057,4.057,0,0,0,3.136-1.358h.084v.854c0,2.282-1.218,3.5-3.178,3.5a3.3,3.3,0,0,1-3-2.114l-2.282.952a5.675,5.675,0,0,0,5.278,3.514c3.066,0,5.656-1.806,5.656-6.2v-10.7h-2.478v.966Zm-3.01,8.232a3.617,3.617,0,0,1,0-7.21,3.358,3.358,0,0,1,3.178,3.626A3.311,3.311,0,0,1,101.972,43.192ZM136.118,27.68H129.86v17.5h2.618V38.544h3.654a5.441,5.441,0,1,0-.014-10.864Zm.056,8.428h-3.71V30.1h3.71a3,3,0,1,1,0,6.006ZM152.33,33.6a4.925,4.925,0,0,0-4.662,2.674l2.324.966a2.47,2.47,0,0,1,2.38-1.288,2.513,2.513,0,0,1,2.744,2.254v.182a5.847,5.847,0,0,0-2.73-.672c-2.506,0-5.04,1.372-5.04,3.934,0,2.338,2.044,3.85,4.34,3.85a3.681,3.681,0,0,0,3.332-1.708h.084v1.358h2.52V38.446C157.636,35.338,155.312,33.6,152.33,33.6Zm-.322,9.59c-.854,0-2.044-.434-2.044-1.484,0-1.344,1.484-1.862,2.772-1.862a4.61,4.61,0,0,1,2.38.588A3.159,3.159,0,0,1,152.008,43.192ZM166.82,33.98l-3,7.588h-.084l-3.108-7.588h-2.814l4.662,10.612-2.66,5.894h2.73l7.182-16.506ZM143.3,45.18h2.618V27.68H143.3Z" transform="translate(16.416 6.82)" fill="#fff"/>
    <g id="Group_54943" data-name="Group 54943" transform="translate(23.958 19.998)">
      <path id="Path_31470" data-name="Path 31470" d="M20.624,17.568a2.817,2.817,0,0,0-.644,1.96V50.5a2.769,2.769,0,0,0,.644,1.96l.1.1L38.068,35.222V34.8L20.722,17.47Z" transform="translate(-19.966 -17.01)" fill="url(#linear-gradient)"/>
      <path id="Path_31471" data-name="Path 31471" d="M38.682,37.7,32.9,31.922V31.5l5.782-5.782.126.07,6.846,3.892c1.96,1.106,1.96,2.926,0,4.046L38.808,37.62Z" transform="translate(-14.798 -13.71)" fill="url(#linear-gradient-2)"/>
      <path id="Path_31472" data-name="Path 31472" d="M43.792,35.908,37.884,30,20.44,47.444c.644.686,1.708.77,2.912.084l20.44-11.62" transform="translate(-19.782 -11.998)" fill="url(#linear-gradient-3)"/>
      <path id="Path_31473" data-name="Path 31473" d="M43.8,29.236,23.342,17.616c-1.2-.686-2.268-.6-2.912.084L37.888,35.144Z" transform="translate(-19.786 -17.141)" fill="url(#linear-gradient-4)"/>
      <g id="Group_54942" data-name="Group 54942" transform="translate(0.014 23.784)">
        <path id="Path_31474" data-name="Path 31474" d="M43.666,34.13,23.338,45.68a2.326,2.326,0,0,1-2.8.014h0l-.1.1h0l.1.1h0a2.328,2.328,0,0,0,2.8-.014l20.454-11.62Z" transform="translate(-19.796 -34.13)" opacity="0.2"/>
        <path id="Path_31475" data-name="Path 31475" d="M20.624,42.88a2.817,2.817,0,0,1-.644-1.96v.21a2.769,2.769,0,0,0,.644,1.96l.1-.1Z" transform="translate(-19.98 -31.414)" opacity="0.12"/>
      </g>
      <path id="Path_31476" data-name="Path 31476" d="M44.006,31.82,37.02,35.782l.126.126,6.846-3.892A2.461,2.461,0,0,0,45.462,30h0A2.547,2.547,0,0,1,44.006,31.82Z" transform="translate(-13.15 -11.998)" opacity="0.12"/>
      <path id="Path_31477" data-name="Path 31477" d="M23.526,17.81l27.3,15.512a2.616,2.616,0,0,1,1.47,1.82h0a2.443,2.443,0,0,0-1.47-2.016l-27.3-15.512c-1.96-1.106-3.556-.182-3.556,2.058v.21C19.97,17.628,21.58,16.7,23.526,17.81Z" transform="translate(-19.97 -17.139)" fill="#fff" opacity="0.25"/>
    </g>
  </g>
</svg>
