<svg xmlns="http://www.w3.org/2000/svg" width="72.032" height="80" viewBox="0 0 72.032 80">
  <g id="Group_55379" data-name="Group 55379" transform="translate(13784 -3570)">
    <g id="JPG" transform="translate(-13784 3570)">
      <path id="Shape_Copy_48" data-name="Shape Copy 48" d="M61.5,80H0V0H42.283L61.5,19.048Z" transform="translate(10.53)" fill="#cba610"/>
      <path id="Shape_Copy_47" data-name="Shape Copy 47" d="M18.258,18.1H0V0Z" transform="translate(51.146 3.009)" fill="#f3ce38"/>
      <rect id="Rectangle_5_Copy_38" data-name="Rectangle 5 Copy 38" width="41.368" height="21.06" rx="4" transform="translate(0 12.034)" fill="#af8f0e"/>
      <text id="JPG-2" data-name="JPG" transform="translate(7.521 15.043)" fill="#f3ce38" font-size="12" font-family="Roboto-Bold, Roboto" font-weight="700" letter-spacing="-0.024em"><tspan x="0" y="13">JPG</tspan></text>
      <path id="_copy" data-name=" copy" d="M24.063,27.077H2.988a2.882,2.882,0,0,1-2.1-.886A2.913,2.913,0,0,1,0,24.063V2.988A2.882,2.882,0,0,1,.886.886,2.882,2.882,0,0,1,2.988,0H24.063a2.937,2.937,0,0,1,2.128.873,2.87,2.87,0,0,1,.886,2.115V24.063a3.025,3.025,0,0,1-3.014,3.014ZM8.277,15.786h0L2.988,22.555H24.063l-6.769-9.017-5.262,6.769L8.277,15.786Z" transform="translate(27.829 42.12)" fill="#f3ce38"/>
    </g>
  </g>
</svg>
