<svg id="Iconly_Bulk_Password" data-name="Iconly/Bulk/Password" xmlns="http://www.w3.org/2000/svg" width="80" height="80" viewBox="0 0 80 80">
  <g id="Password">
    <path id="Fill_1" data-name="Fill 1" d="M57.336,0H22.66C9.1,0,0,9.512,0,23.668V56.336C0,70.488,9.1,80,22.66,80H57.332C70.888,80,80,70.488,80,56.336V23.668C80,9.512,70.892,0,57.336,0" fill="#d0e6f6"/>
    <path id="Icon_awesome-unlock-alt" data-name="Icon awesome-unlock-alt" d="M28.125,18H10.688V10.751a5.063,5.063,0,1,1,10.125-.063v1.125A1.683,1.683,0,0,0,22.5,13.5h2.25a1.683,1.683,0,0,0,1.688-1.687V10.688a10.688,10.688,0,1,0-21.375.105V18H3.375A3.376,3.376,0,0,0,0,21.375v11.25A3.376,3.376,0,0,0,3.375,36h24.75A3.376,3.376,0,0,0,31.5,32.625V21.375A3.376,3.376,0,0,0,28.125,18ZM18.563,28.688a2.813,2.813,0,0,1-5.625,0V25.313a2.813,2.813,0,0,1,5.625,0Z" transform="translate(24.329 20.667)" fill="#177eb9"/>
  </g>
</svg>
