<svg xmlns="http://www.w3.org/2000/svg" width="200.48" height="53.353" viewBox="0 0 200.48 53.353">
  <g id="Group_55099" data-name="Group 55099" transform="translate(-494 -321)">
    <g id="Group_55098" data-name="Group 55098" transform="translate(0 6)">
      <g id="Group_55097" data-name="Group 55097" transform="translate(136.4 190)">
        <path id="Path_31618" data-name="Path 31618" d="M1.6,0h9.28V-12.92L21.28,0H29.6V-28H20.32v12.36L10.36-28H1.6ZM32.88,0h9.36V-28H32.88ZM45.52,0h9.16V-13.88l6.44,9.96h.16l6.44-9.96V0h9.32V-28H67.28l-6,9.84-6-9.84H45.52ZM80.24,0H95.76c7.08,0,10.76-3.28,10.76-7.76v-.08c0-3.84-2.32-5.76-5.92-6.8,3-1.04,5-3.08,5-6.4v-.08a5.981,5.981,0,0,0-1.72-4.36C102.24-27.12,99.8-28,95.92-28H80.24Zm9.12-17v-3.92H93.4c2,0,3,.68,3,1.92v.08c0,1.24-.96,1.92-2.96,1.92Zm0,9.92v-4.16h4.72c2.04,0,3.04.84,3.04,2.04v.08c0,1.2-1.04,2.04-3.08,2.04ZM108.56,0h22.52V-8H117.92V-28h-9.36Zm24.56,0H157.2V-7.68H142.32v-3.04H156v-6.76H142.32v-2.84H157V-28H133.12Zm26.2-8.88h13.92v-7.44H159.32ZM172.08,0h10.44L187-7.28,191.44,0h10.64L192.6-14.36,201.68-28H191.24l-4.08,6.68L183.12-28H172.48l9.08,13.76Z" transform="translate(356 153)" fill="#177eb9"/>
      </g>
      <path id="Path_31619" data-name="Path 31619" d="M9.816-8.688a4.012,4.012,0,0,1,2.292,1.452,4.284,4.284,0,0,1,.8,2.652,4.218,4.218,0,0,1-1.62,3.492A6.9,6.9,0,0,1,6.888.192,10.22,10.22,0,0,1,3.612-.336a7.469,7.469,0,0,1-2.6-1.44L2.04-4.032A7.471,7.471,0,0,0,6.768-2.28a3.788,3.788,0,0,0,2.4-.636A2.329,2.329,0,0,0,9.96-4.848a2.216,2.216,0,0,0-.8-1.884,4.1,4.1,0,0,0-2.484-.612H4.44V-9.792H6.264q3.288,0,3.288-2.472a2.242,2.242,0,0,0-.708-1.776,2.933,2.933,0,0,0-2-.624,6.4,6.4,0,0,0-2.292.444A8.745,8.745,0,0,0,2.28-12.912L1.248-15.168a7.211,7.211,0,0,1,2.58-1.44,10,10,0,0,1,3.2-.528,6.119,6.119,0,0,1,3.984,1.212A4,4,0,0,1,12.5-12.648a4.415,4.415,0,0,1-.732,2.46A3.919,3.919,0,0,1,9.816-8.688Zm12.84-2.16a5.2,5.2,0,0,1,2.664.684,4.771,4.771,0,0,1,1.836,1.92,5.894,5.894,0,0,1,.66,2.82,5.859,5.859,0,0,1-.72,2.916,5.113,5.113,0,0,1-2.016,2,5.926,5.926,0,0,1-2.928.72A5.983,5.983,0,0,1,17.2-1.956a9.71,9.71,0,0,1-1.74-6.2,12.7,12.7,0,0,1,.828-4.812,6.692,6.692,0,0,1,2.388-3.1,6.382,6.382,0,0,1,3.7-1.068,8.689,8.689,0,0,1,2.952.516,7.563,7.563,0,0,1,2.5,1.452l-1.032,2.256a7.048,7.048,0,0,0-4.3-1.752,3.261,3.261,0,0,0-2.88,1.572,8.562,8.562,0,0,0-1.08,4.548,3.972,3.972,0,0,1,1.656-1.692A5.012,5.012,0,0,1,22.656-10.848Zm-.648,8.616a2.727,2.727,0,0,0,2.1-.84,3.184,3.184,0,0,0,.78-2.256A3.121,3.121,0,0,0,24.1-7.56a2.766,2.766,0,0,0-2.112-.84,2.862,2.862,0,0,0-2.148.852,3.051,3.051,0,0,0-.828,2.22,3.083,3.083,0,0,0,.828,2.244A2.892,2.892,0,0,0,22.008-2.232ZM36,.216A5.283,5.283,0,0,1,31.416-2q-1.584-2.22-1.584-6.468a10.917,10.917,0,0,1,1.584-6.408A5.293,5.293,0,0,1,36-17.088a5.293,5.293,0,0,1,4.584,2.208,10.917,10.917,0,0,1,1.584,6.408,11.084,11.084,0,0,1-1.584,6.456A5.273,5.273,0,0,1,36,.216Zm0-2.424a2.483,2.483,0,0,0,2.376-1.5,11.345,11.345,0,0,0,.744-4.764,11.093,11.093,0,0,0-.744-4.716A2.487,2.487,0,0,0,36-14.664a2.487,2.487,0,0,0-2.376,1.476,11.093,11.093,0,0,0-.744,4.716,11.345,11.345,0,0,0,.744,4.764A2.483,2.483,0,0,0,36-2.208Z" transform="translate(651.992 368.137)" fill="#eb4281"/>
    </g>
  </g>
</svg>
