<svg xmlns="http://www.w3.org/2000/svg" width="72.032" height="80" viewBox="0 0 72.032 80">
  <g id="Group_55378" data-name="Group 55378" transform="translate(13493 -3544)">
    <g id="PDF" transform="translate(-13493 3544)">
      <path id="Shape_Copy_22" data-name="Shape Copy 22" d="M61.5,80H0V0H42.283L61.5,19.048Z" transform="translate(10.53)" fill="#c61716"/>
      <path id="Shape_Copy_21" data-name="Shape Copy 21" d="M18.258,18.1H0V0Z" transform="translate(51.146 3.009)" fill="#ff7f7f"/>
      <rect id="Rectangle_5_Copy_16" data-name="Rectangle 5 Copy 16" width="41.368" height="21.06" rx="4" transform="translate(0 12.034)" fill="#9f1312"/>
      <text id="PDF-2" data-name="PDF" transform="translate(8.274 14.291)" fill="#ff7f7f" font-size="12" font-family="Roboto-Bold, Roboto" font-weight="700" letter-spacing="-0.024em"><tspan x="0" y="13">PDF</tspan></text>
      <path id="_" data-name="" d="M2.393,29.333h0l-1.038-.29L.233,28.336.15,28.212A2.276,2.276,0,0,1,0,27.568a2.1,2.1,0,0,1,.062-.644,5.837,5.837,0,0,1,1.226-2.285,12.14,12.14,0,0,1,3.178-2.7L6.59,20.774l2.285-4.28a36.819,36.819,0,0,0,1.5-3.594c.411-1.165.761-2.277,1.039-3.3V9.556A27.6,27.6,0,0,1,10.5,5.8a9.639,9.639,0,0,1,.416-3.967A2.519,2.519,0,0,1,11.575.581,1.624,1.624,0,0,1,12.78,0h.54a2.17,2.17,0,0,1,.789.146,1.919,1.919,0,0,1,.665.436,4.32,4.32,0,0,1,.894,3.657A37.269,37.269,0,0,1,14.817,9.1l-.083.332a18.064,18.064,0,0,0,1.683,3.553,10.041,10.041,0,0,0,2.1,2.472l2.036,1.371,3.075-.166a12.228,12.228,0,0,1,3.532.416,3.1,3.1,0,0,1,1.828,1.246,1.447,1.447,0,0,1,.29.581,1.528,1.528,0,0,1,0,.707,2.18,2.18,0,0,1-.166.852,1.873,1.873,0,0,1-.5.686,1.745,1.745,0,0,1-.831.56,3.97,3.97,0,0,1-1.288.188,15.711,15.711,0,0,1-3.324-.437,16.552,16.552,0,0,1-3.781-1.35c-2.019.249-3.823.515-5.36.789a33.006,33.006,0,0,0-4.154,1l-.458.166A30.105,30.105,0,0,1,5.53,27.588,4.663,4.663,0,0,1,2.393,29.333Zm3.573-6.4-1.122.748a13.28,13.28,0,0,0-2.015,2.223,4.419,4.419,0,0,0-.852,1.765,5.133,5.133,0,0,0,1.828-1.454A16.884,16.884,0,0,0,5.966,22.935Zm7.354-10.761c-.276.857-.619,1.765-1.018,2.7s-.868,1.931-1.392,2.949L9.747,20.276l.25-.083A36.817,36.817,0,0,1,14.3,18.8c1.365-.345,2.574-.618,3.594-.81l-.956-.748a11.863,11.863,0,0,1-1.994-2.2A16.858,16.858,0,0,1,13.321,12.174Zm9.847,6.482a.74.74,0,0,0-.27.041.933.933,0,0,0-.27.208,21.33,21.33,0,0,0,2.472.873,7.685,7.685,0,0,0,2.015.332l.457-.041h.083a1.383,1.383,0,0,0,.145-.083c.042-.028.063-.111.063-.249l-.208-.249a3.957,3.957,0,0,0-1.08-.5A11.622,11.622,0,0,0,23.168,18.655ZM13.113,1.5l-.166.249a5.452,5.452,0,0,0-.27,2.015,12.127,12.127,0,0,0,.436,2.846l.125-.083.374-1.952.083-.374a6.81,6.81,0,0,0,.125-1.558,2.243,2.243,0,0,0-.332-1.06Z" transform="translate(26.325 41.368)" fill="#ff7f7f"/>
    </g>
  </g>
</svg>
