<svg id="Group_54971" data-name="Group 54971" xmlns="http://www.w3.org/2000/svg" width="64" height="64" viewBox="0 0 64 64">
  <path id="Path_31615" data-name="Path 31615" d="M32,0A32,32,0,1,1,0,32,32,32,0,0,1,32,0Z" fill="#177eb9" opacity="0.1"/>
  <g id="Icon_awesome-hand-holding-usd" data-name="Icon awesome-hand-holding-usd" transform="translate(19.25 18)">
    <path id="Icon_awesome-hand-holding-usd-2" data-name="Icon awesome-hand-holding-usd" d="M12.075,6.764l2.344.67a.394.394,0,0,1-.108.773H12.773a1.206,1.206,0,0,1-.483-.1.581.581,0,0,0-.661.094l-.82.82a.562.562,0,0,0,.07.863,3.425,3.425,0,0,0,1.491.539v.83a.752.752,0,0,0,.75.75h.75a.752.752,0,0,0,.75-.75v-.825a2.637,2.637,0,0,0,2.311-2.953A2.75,2.75,0,0,0,14.92,5.236l-2.344-.67a.394.394,0,0,1,.108-.773h1.538a1.206,1.206,0,0,1,.483.1.581.581,0,0,0,.661-.094l.82-.82a.562.562,0,0,0-.07-.862,3.425,3.425,0,0,0-1.491-.539V.75a.752.752,0,0,0-.75-.75h-.75a.752.752,0,0,0-.75.75v.825a2.637,2.637,0,0,0-2.311,2.953A2.75,2.75,0,0,0,12.075,6.764ZM25.027,15.38a1.408,1.408,0,0,0-1.889,0L19.05,18.844a2.726,2.726,0,0,1-1.772.656H12.042a.751.751,0,0,1,0-1.5h3.464a1.5,1.5,0,0,0,.075-3H8.5a5.012,5.012,0,0,0-3.277,1.233L3.164,18H.708A.732.732,0,0,0,0,18.75v4.5A.732.732,0,0,0,.708,24H16.5a2.745,2.745,0,0,0,1.772-.656l6.694-5.672a1.557,1.557,0,0,0,.061-2.292Z" fill="#177eb9"/>
  </g>
</svg>
