<svg id="Group_54971" data-name="Group 54971" xmlns="http://www.w3.org/2000/svg" width="48" height="48" viewBox="0 0 48 48">
  <path id="Path_31615" data-name="Path 31615" d="M24,0A24,24,0,1,1,0,24,24,24,0,0,1,24,0Z" fill="#177eb9" opacity="0.1"/>
  <g id="Icon_feather-link" data-name="Icon feather-link" transform="translate(13.995 14.005)">
    <path id="Path_31687" data-name="Path 31687" d="M10,13a5,5,0,0,0,7.54.54l3-3a5,5,0,1,0-7.071-7.071L11.75,5.18" transform="translate(-1.995 -2.005)" fill="none" stroke="#177eb9" stroke-linecap="round" stroke-linejoin="round" stroke-width="2"/>
    <path id="Path_31688" data-name="Path 31688" d="M14,11a5,5,0,0,0-7.54-.54l-3,3a5,5,0,1,0,7.071,7.071L12.24,18.82" transform="translate(-1.995 -2.005)" fill="none" stroke="#177eb9" stroke-linecap="round" stroke-linejoin="round" stroke-width="2"/>
  </g>
</svg>
