<svg id="Group_54971" data-name="Group 54971" xmlns="http://www.w3.org/2000/svg" width="48" height="48" viewBox="0 0 48 48">
  <path id="Path_31615" data-name="Path 31615" d="M24,0A24,24,0,1,1,0,24,24,24,0,0,1,24,0Z" fill="#177eb9" opacity="0.1"/>
  <g id="Icon_metro-tree" data-name="Icon metro-tree" transform="translate(13.717 14.359)">
    <path id="Icon_metro-tree-2" data-name="Icon metro-tree" d="M21.315,16.71h-.321V12.532a2.252,2.252,0,0,0-2.249-2.249H13.282V7.712H13.6a.967.967,0,0,0,.964-.964V3.535a.967.967,0,0,0-.964-.964H10.39a.967.967,0,0,0-.964.964V6.748a.967.967,0,0,0,.964.964h.321v2.571H5.249A2.252,2.252,0,0,0,3,12.532V16.71H2.678a.967.967,0,0,0-.964.964v3.213a.967.967,0,0,0,.964.964H5.891a.967.967,0,0,0,.964-.964V17.674a.967.967,0,0,0-.964-.964H5.57V12.854h5.141V16.71H10.39a.967.967,0,0,0-.964.964v3.213a.967.967,0,0,0,.964.964H13.6a.967.967,0,0,0,.964-.964V17.674a.967.967,0,0,0-.964-.964h-.321V12.854h5.141V16.71H18.1a.967.967,0,0,0-.964.964v3.213a.967.967,0,0,0,.964.964h3.213a.967.967,0,0,0,.964-.964V17.674A.967.967,0,0,0,21.315,16.71ZM5.57,20.566H3V17.995H5.57Zm7.712,0H10.711V17.995h2.571ZM10.711,6.427V3.856h2.571V6.427H10.711ZM20.994,20.566H18.423V17.995h2.571Z" transform="translate(-1.714 -2.571)" fill="#177eb9"/>
  </g>
</svg>
